HIERARCHY
ROOT Hips
{
	OFFSET	0.00	0.00	0.00
	CHANNELS 6 Xposition Yposition Zposition Zrotation Xrotation Yrotation
	JOINT Spine
	{
		OFFSET	 0.000000	 0.059888	 0.006666
		CHANNELS 3 Zrotation Xrotation Yrotation
		JOINT Chest
		{
			OFFSET	 0.000000	 0.125681	-0.015911
			CHANNELS 3 Zrotation Xrotation Yrotation
			JOINT UpperChest
			{
				OFFSET	 0.000000	 0.122768	-0.001652
				CHANNELS 3 Zrotation Xrotation Yrotation
				JOINT Neck
				{
					OFFSET	 0.000000	 0.155865	 0.008735
					CHANNELS 3 Zrotation Xrotation Yrotation
					JOINT Head
					{
						OFFSET	 0.000000	 0.095969	-0.000410
						CHANNELS 3 Zrotation Xrotation Yrotation
						JOINT LeftEye
						{
							OFFSET	 0.015267	 0.059218	 0.021494
							CHANNELS 3 Zrotation Xrotation Yrotation
							End Site
							{
								OFFSET	 0.015267	 0.059218	 0.021494
							}
						}
						JOINT RightEye
						{
							OFFSET	-0.015267	 0.059218	 0.021494
							CHANNELS 3 Zrotation Xrotation Yrotation
							End Site
							{
								OFFSET	-0.015267	 0.059218	 0.021494
							}
						}
					}
				}
				JOINT LeftShoulder
				{
					OFFSET	 0.025383	 0.124268	 0.007699
					CHANNELS 3 Zrotation Xrotation Yrotation
					JOINT LeftUpperArm
					{
						OFFSET	 0.136062	 0.000000	 0.000000
						CHANNELS 3 Zrotation Xrotation Yrotation
						JOINT LeftLowerArm
						{
							OFFSET	 0.225446	 0.000000	 0.000000
							CHANNELS 3 Zrotation Xrotation Yrotation
							JOINT LeftHand
							{
								OFFSET	 0.256325	 0.000003	 0.000015
								CHANNELS 3 Zrotation Xrotation Yrotation
								JOINT LeftIndexProximal
								{
									OFFSET	 0.074229	 0.008101	 0.022282
									CHANNELS 3 Zrotation Xrotation Yrotation
									JOINT LeftIndexIntermediate
									{
										OFFSET	 0.037712	 0.000000	-0.000001
										CHANNELS 3 Zrotation Xrotation Yrotation
										JOINT LeftIndexDistal
										{
											OFFSET	 0.023218	 0.000022	 0.000021
											CHANNELS 3 Zrotation Xrotation Yrotation
											End Site
											{
												OFFSET	 0.023218	 0.000022	 0.000021
											}
										}
									}
								}
								JOINT LeftLittleProximal
								{
									OFFSET	 0.069261	 0.008101	-0.033073
									CHANNELS 3 Zrotation Xrotation Yrotation
									JOINT LeftLittleIntermediate
									{
										OFFSET	 0.035643	 0.000000	 0.000000
										CHANNELS 3 Zrotation Xrotation Yrotation
										JOINT LeftLittleDistal
										{
											OFFSET	 0.020542	 0.000000	 0.000000
											CHANNELS 3 Zrotation Xrotation Yrotation
											End Site
											{
												OFFSET	 0.020542	 0.000000	 0.000000
											}
										}
									}
								}
								JOINT LeftMiddleProximal
								{
									OFFSET	 0.075240	 0.008101	 0.002320
									CHANNELS 3 Zrotation Xrotation Yrotation
									JOINT LeftMiddleIntermediate
									{
										OFFSET	 0.042007	 0.000000	 0.000000
										CHANNELS 3 Zrotation Xrotation Yrotation
										JOINT LeftMiddleDistal
										{
											OFFSET	 0.025915	 0.000000	 0.000000
											CHANNELS 3 Zrotation Xrotation Yrotation
											End Site
											{
												OFFSET	 0.025915	 0.000000	 0.000000
											}
										}
									}
								}
								JOINT LeftRingProximal
								{
									OFFSET	 0.074383	 0.008101	-0.015403
									CHANNELS 3 Zrotation Xrotation Yrotation
									JOINT LeftRingIntermediate
									{
										OFFSET	 0.038967	 0.000000	 0.000000
										CHANNELS 3 Zrotation Xrotation Yrotation
										JOINT LeftRingDistal
										{
											OFFSET	 0.022488	 0.000000	 0.000000
											CHANNELS 3 Zrotation Xrotation Yrotation
											End Site
											{
												OFFSET	 0.022488	 0.000000	 0.000000
											}
										}
									}
								}
								JOINT LeftThumbProximal
								{
									OFFSET	 0.003995	-0.010985	 0.018096
									CHANNELS 3 Zrotation Xrotation Yrotation
									JOINT LeftThumbIntermediate
									{
										OFFSET	 0.052819	-0.000008	-0.000074
										CHANNELS 3 Zrotation Xrotation Yrotation
										JOINT LeftThumbDistal
										{
											OFFSET	 0.032489	 0.000042	-0.000035
											CHANNELS 3 Zrotation Xrotation Yrotation
											End Site
											{
												OFFSET	 0.032489	 0.000042	-0.000035
											}
										}
									}
								}
							}
						}
					}
				}
				JOINT RightShoulder
				{
					OFFSET	-0.025383	 0.124268	 0.007699
					CHANNELS 3 Zrotation Xrotation Yrotation
					JOINT RightUpperArm
					{
						OFFSET	-0.136062	 0.000000	 0.000000
						CHANNELS 3 Zrotation Xrotation Yrotation
						JOINT RightLowerArm
						{
							OFFSET	-0.225446	 0.000000	 0.000000
							CHANNELS 3 Zrotation Xrotation Yrotation
							JOINT RightHand
							{
								OFFSET	-0.256325	 0.000003	 0.000015
								CHANNELS 3 Zrotation Xrotation Yrotation
								JOINT RightIndexProximal
								{
									OFFSET	-0.074229	 0.008101	 0.022282
									CHANNELS 3 Zrotation Xrotation Yrotation
									JOINT RightIndexIntermediate
									{
										OFFSET	-0.037712	 0.000000	-0.000001
										CHANNELS 3 Zrotation Xrotation Yrotation
										JOINT RightIndexDistal
										{
											OFFSET	-0.023218	 0.000022	 0.000021
											CHANNELS 3 Zrotation Xrotation Yrotation
											End Site
											{
												OFFSET	-0.023218	 0.000022	 0.000021
											}
										}
									}
								}
								JOINT RightLittleProximal
								{
									OFFSET	-0.069261	 0.008101	-0.033073
									CHANNELS 3 Zrotation Xrotation Yrotation
									JOINT RightLittleIntermediate
									{
										OFFSET	-0.035643	 0.000000	 0.000000
										CHANNELS 3 Zrotation Xrotation Yrotation
										JOINT RightLittleDistal
										{
											OFFSET	-0.020542	 0.000000	 0.000000
											CHANNELS 3 Zrotation Xrotation Yrotation
											End Site
											{
												OFFSET	-0.020542	 0.000000	 0.000000
											}
										}
									}
								}
								JOINT RightMiddleProximal
								{
									OFFSET	-0.075240	 0.008101	 0.002320
									CHANNELS 3 Zrotation Xrotation Yrotation
									JOINT RightMiddleIntermediate
									{
										OFFSET	-0.042007	 0.000000	 0.000000
										CHANNELS 3 Zrotation Xrotation Yrotation
										JOINT RightMiddleDistal
										{
											OFFSET	-0.025915	 0.000000	 0.000000
											CHANNELS 3 Zrotation Xrotation Yrotation
											End Site
											{
												OFFSET	-0.025915	 0.000000	 0.000000
											}
										}
									}
								}
								JOINT RightRingProximal
								{
									OFFSET	-0.074383	 0.008101	-0.015403
									CHANNELS 3 Zrotation Xrotation Yrotation
									JOINT RightRingIntermediate
									{
										OFFSET	-0.038967	 0.000000	 0.000000
										CHANNELS 3 Zrotation Xrotation Yrotation
										JOINT RightRingDistal
										{
											OFFSET	-0.022488	 0.000000	 0.000000
											CHANNELS 3 Zrotation Xrotation Yrotation
											End Site
											{
												OFFSET	-0.022488	 0.000000	 0.000000
											}
										}
									}
								}
								JOINT RightThumbProximal
								{
									OFFSET	-0.003995	-0.010985	 0.018096
									CHANNELS 3 Zrotation Xrotation Yrotation
									JOINT RightThumbIntermediate
									{
										OFFSET	-0.052819	-0.000008	-0.000074
										CHANNELS 3 Zrotation Xrotation Yrotation
										JOINT RightThumbDistal
										{
											OFFSET	-0.032489	 0.000042	-0.000035
											CHANNELS 3 Zrotation Xrotation Yrotation
											End Site
											{
												OFFSET	-0.032489	 0.000042	-0.000035
											}
										}
									}
								}
							}
						}
					}
				}
			}
		}
	}
	JOINT LeftUpperLeg
	{
		OFFSET	 0.087143	-0.045243	 0.001548
		CHANNELS 3 Zrotation Xrotation Yrotation
		JOINT LeftLowerLeg
		{
			OFFSET	 0.000000	-0.394432	-0.000001
			CHANNELS 3 Zrotation Xrotation Yrotation
			JOINT LeftFoot
			{
				OFFSET	 0.000000	-0.466446	 0.003058
				CHANNELS 3 Zrotation Xrotation Yrotation
				JOINT LeftToes
				{
					OFFSET	 0.000000	-0.079218	 0.140851
					CHANNELS 3 Zrotation Xrotation Yrotation
					End Site
					{
						OFFSET	 0.000000	-0.079218	 0.140851
					}
				}
			}
		}
	}
	JOINT RightUpperLeg
	{
		OFFSET	-0.087143	-0.045243	 0.001548
		CHANNELS 3 Zrotation Xrotation Yrotation
		JOINT RightLowerLeg
		{
			OFFSET	 0.000000	-0.394432	-0.000001
			CHANNELS 3 Zrotation Xrotation Yrotation
			JOINT RightFoot
			{
				OFFSET	 0.000000	-0.466446	 0.003058
				CHANNELS 3 Zrotation Xrotation Yrotation
				JOINT RightToes
				{
					OFFSET	 0.000000	-0.079218	 0.140851
					CHANNELS 3 Zrotation Xrotation Yrotation
					End Site
					{
						OFFSET	 0.000000	-0.079218	 0.140851
					}
				}
			}
		}
	}
}
MOTION
Frames:    4
Frame Time: 0.03333334
 0.000000	 1.032722	 0.003576	 0.000000	 0.000000	 0.000000	-2.421780	 5.406412	-6.650846	 0.751564	 1.578361	 0.027936	 0.000008	-12.397260	 0.000013	 3.047632	 11.169050	-0.438431	-1.693683	-1.348480	 2.765785	-1.449289	 2.936478	 21.134170	 1.432336	 2.943290	-22.632120	 5.151006	-1.785054	 7.301414	-74.231960	 27.201830	-6.895381	-37.679780	 26.786240	-88.671530	-7.035089	-64.685130	 3.134085	 3.793692	 0.852882	 12.651960	-6.791885	 0.000000	 0.000000	-8.157814	 0.000000	 0.000000	-13.516000	-4.862219	 19.423490	-0.636429	 0.000000	 0.000000	-3.307129	 0.000000	 0.000000	-3.971154	-1.060167	 14.923780	-10.803870	 0.000000	 0.000000	-2.380637	 0.000000	 0.000000	-10.217800	-3.694165	 19.669610	-6.616335	 0.000000	 0.000000	-1.616405	 0.000000	 0.000000	-8.371745	 51.000960	-19.407260	-57.151180	 55.658420	 51.974690	 1.865834	-14.826670	 1.336673	 1.427243	-1.712047	-9.822296	 49.175210	 36.296940	 30.131100	 23.693780	-6.612590	 128.162200	-14.963920	 1.262169	 36.506830	 25.928730	-2.186549	-4.486992	 13.035510	 0.000000	 0.000000	 1.523671	 0.000000	 0.000000	 79.372420	-19.683500	-3.616441	 75.067000	 0.000000	 0.000000	 39.263720	 0.000000	 0.000000	 66.975070	-18.519540	-7.687784	 79.526450	 0.000000	 0.000000	 35.551480	 0.000000	 0.000000	 76.142700	-19.462240	-4.698673	 89.560840	 0.000000	 0.000000	 38.364660	 0.000000	 0.000000	 26.886220	 54.947980	-9.999757	 15.325440	-28.724570	-8.162872	 8.014620	-11.920390	-5.257843	-0.000001	-6.013633	-0.000022	 0.000001	 2.614233	-0.000018	 0.000000	-3.498952	 0.000000	 0.000000	 0.248285	 0.000000	 0.000008	-6.013632	 0.000023	-0.000009	 2.614229	-0.000003	 0.000000	-3.498953	 0.000000	 0.000000	 0.248285	 0.000000
 0.000000	 1.032722	 0.003576	 0.000000	 0.000000	 0.000000	-2.930569	 5.456636	-6.448976	 1.329874	 1.567272	 0.051991	 0.000008	-12.397260	 0.000013	 2.719073	 10.902120	-0.396955	-1.652021	-1.366767	 2.703286	-1.397428	 2.797701	 21.014980	 1.372886	 2.807572	-22.804040	 5.521788	-1.692590	 6.850799	-75.713020	 28.594030	-8.000169	-37.713820	 25.412640	-91.822560	-12.223690	-63.799260	 2.159898	 6.861634	 1.632983	 13.323150	-5.734838	 0.000000	 0.000000	-7.998339	 0.000000	 0.000000	-13.631040	-4.902622	 19.413700	-0.660272	 0.000000	 0.000000	-3.475024	 0.000000	 0.000000	-2.532756	-0.627389	 13.903700	-9.453197	 0.000000	 0.000000	-3.042531	 0.000000	 0.000000	-9.676082	-3.500726	 19.703600	-5.832035	 0.000000	 0.000000	-2.070087	 0.000000	 0.000000	-6.782708	 52.932850	-21.293790	-51.058520	 53.634630	 45.115350	 1.992776	-14.120090	 1.248073	 2.198452	-1.621682	-9.474068	 48.741950	 36.458390	 29.969350	 23.135490	-5.794719	 126.051100	-14.230980	 1.425490	 34.713200	 24.646030	-2.010994	-4.352338	 12.468170	 0.060701	-0.039614	 1.464621	 0.064669	 0.034912	 75.539640	-18.790140	-4.108069	 71.541020	 0.000000	 0.000000	 37.291130	 0.017654	 0.052322	 63.728020	-17.529420	-7.861399	 75.820140	 0.000002	-0.000001	 33.798240	 0.000002	 0.000000	 72.458500	-18.534720	-5.110519	 85.467290	 0.000000	 0.000000	 36.511060	-0.020583	-0.062397	 23.175810	 57.049780	-6.949644	 14.729980	-27.307990	-7.909113	 7.405200	-11.332970	-5.015980	-0.000001	-6.013633	-0.000022	 0.000001	 2.614233	-0.000018	 0.000000	-3.498952	 0.000000	 0.000000	 0.248285	 0.000000	 0.000008	-6.013632	 0.000023	-0.000009	 2.614229	-0.000003	 0.000000	-3.498953	 0.000000	 0.000000	 0.248285	 0.000000
 0.000000	 1.032722	 0.003576	 0.000000	 0.000000	 0.000000	-3.112525	 5.482189	-6.259988	 1.677022	 1.456470	 0.065624	 0.000007	-12.397260	 0.000012	 2.441182	 10.700480	-0.362770	-1.743171	-1.512506	 2.450052	-1.407607	 2.829820	 21.158560	 1.388744	 2.837396	-22.590190	 5.882977	-1.556030	 6.419096	-77.071490	 30.397450	-9.406089	-37.273560	 23.511550	-94.929260	-19.188800	-60.461150	 0.699356	 9.715581	 2.379462	 13.630570	-5.553792	 0.000000	 0.000000	-7.385384	 0.000000	 0.000000	-13.020490	-4.687899	 19.464740	-1.071189	 0.000000	 0.000000	-4.750895	 0.000000	 0.000000	 1.305043	 0.309292	 13.330680	-9.032113	 0.000000	 0.000000	-3.343632	 0.000000	 0.000000	-7.012806	-2.544410	 19.844070	-6.131206	 0.000000	 0.000000	-4.069626	 0.000000	 0.000000	-1.536059	 53.851180	-26.601170	-46.942790	 51.721630	 40.766700	 2.114099	-13.448780	 1.162630	 2.914577	-1.488494	-9.113956	 48.410960	 36.509820	 29.772410	 22.636960	-4.559175	 123.636000	-13.528470	 1.559626	 33.003070	 23.425840	-1.846863	-4.220666	 11.929130	 0.118741	-0.076697	 1.408487	 0.126071	 0.068141	 71.885770	-17.904980	-4.517675	 68.160930	 0.000000	 0.000000	 35.412250	 0.032785	 0.102694	 60.637550	-16.573920	-7.971699	 72.263340	 0.000004	-0.000001	 32.129240	 0.000004	 0.000000	 68.948460	-17.623010	-5.444077	 81.528500	 0.000000	 0.000000	 34.746060	-0.038296	-0.122401	 19.228580	 58.945450	-3.627054	 14.163660	-25.962160	-7.655344	 6.824730	-10.776980	-4.780649	-0.000001	-6.013633	-0.000022	 0.000001	 2.614233	-0.000018	 0.000000	-3.498952	 0.000000	 0.000000	 0.248285	 0.000000	 0.000008	-6.013632	 0.000023	-0.000009	 2.614229	-0.000003	 0.000000	-3.498953	 0.000000	 0.000000	 0.248285	 0.000000
 0.000000	 1.032722	 0.003576	 0.000000	 0.000000	 0.000000	-3.091092	 5.553241	-6.432563	 1.671854	 1.426118	 0.064394	 0.000008	-12.397260	 0.000013	 2.368003	 10.585500	-0.353826	-1.691050	-1.987345	 2.352380	-1.303923	 2.550384	 20.933720	 1.268259	 2.564735	-22.914480	 6.795835	-1.519150	 6.102421	-78.393540	 32.686490	-11.305100	-36.085990	 20.970400	-98.547830	-30.401920	-56.007950	-7.500350	 9.421423	 1.757494	 10.471740	-7.650169	 0.000000	 0.000000	-8.043055	 0.000000	 0.000000	-12.122160	-4.078415	 18.321160	-3.393384	 0.000000	 0.000000	-3.276201	 0.000000	 0.000000	 1.684013	 0.283682	 9.559307	-6.895461	 0.000000	 0.000000	-4.441267	 0.000000	 0.000000	-5.472953	-1.497169	 15.253360	-4.086243	 0.000000	 0.000000	-4.090410	 0.000000	 0.000000	 7.211974	 51.869900	-33.790840	-35.691860	 47.324580	 29.567010	-2.899053	-10.229910	 3.299757	 4.116816	-1.449477	-9.068582	 48.053040	 36.297800	 28.923870	 22.290020	-1.677369	 121.113500	-12.856110	 1.667801	 31.373270	 22.265220	-1.693412	-4.092245	 11.416980	 0.174210	-0.111425	 1.355126	 0.184373	 0.099764	 68.403620	-17.034240	-4.852531	 64.923390	 0.000000	 0.000000	 33.623070	 0.045652	 0.151099	 57.695810	-15.655480	-8.026515	 68.853150	 0.000006	-0.000002	 30.540740	 0.000006	 0.000000	 65.605000	-16.732340	-5.707016	 77.742820	 0.000000	 0.000000	 33.065800	-0.053433	-0.180004	 15.047500	 60.632660	-0.037499	 13.624560	-24.683800	-7.402914	 6.271831	-10.250730	-4.552072	-0.000001	-6.013633	-0.000022	 0.000001	 2.614233	-0.000018	 0.000000	-3.498952	 0.000000	 0.000000	 0.248285	 0.000000	 0.000008	-6.013632	 0.000023	-0.000009	 2.614229	-0.000003	 0.000000	-3.498953	 0.000000	 0.000000	 0.248285	 0.000000
